<svg width="274" height="77" viewBox="0 0 274 77" fill="none" xmlns="http://www.w3.org/2000/svg">
<path d="M109.361 24.064C108.657 24.064 107.91 23.9573 107.121 23.744C106.353 23.5307 105.766 23.264 105.361 22.944C105.212 22.816 105.148 22.624 105.169 22.368L105.873 18.176C105.916 17.8987 106.044 17.76 106.257 17.76C106.492 17.76 106.609 17.9093 106.609 18.208L106.673 19.744C106.716 20.96 107.004 21.856 107.537 22.432C108.092 22.9867 108.764 23.264 109.553 23.264C110.236 23.264 110.822 23.0507 111.313 22.624C111.804 22.176 112.049 21.5253 112.049 20.672C112.049 20.1813 111.975 19.7333 111.825 19.328C111.676 18.9013 111.441 18.4533 111.121 17.984C110.801 17.4933 110.364 16.9067 109.809 16.224C109.084 15.2853 108.54 14.4853 108.177 13.824C107.836 13.1413 107.665 12.4373 107.665 11.712C107.665 10.368 108.081 9.29067 108.913 8.48001C109.766 7.66934 110.844 7.26401 112.145 7.26401C112.721 7.26401 113.276 7.34934 113.809 7.52001C114.364 7.69068 114.823 7.94667 115.185 8.28801C115.377 8.43734 115.441 8.62934 115.377 8.86401L114.481 13.152C114.417 13.4293 114.289 13.568 114.097 13.568C113.905 13.568 113.788 13.4187 113.745 13.12L113.649 11.584C113.564 10.304 113.393 9.38667 113.137 8.83201C112.902 8.27734 112.401 8.00001 111.633 8.00001C110.95 8.00001 110.396 8.23467 109.969 8.70401C109.542 9.17334 109.329 9.73867 109.329 10.4C109.329 11.104 109.521 11.7547 109.905 12.352C110.289 12.928 110.812 13.664 111.473 14.56C112.348 15.712 112.934 16.6293 113.233 17.312C113.553 17.9947 113.713 18.688 113.713 19.392C113.713 20.288 113.51 21.088 113.105 21.792C112.721 22.496 112.198 23.0507 111.537 23.456C110.876 23.8613 110.15 24.064 109.361 24.064Z" fill="#2841DF"/>
<path d="M99.7049 24.064C99.0009 24.064 98.2542 23.9573 97.4649 23.744C96.6969 23.5307 96.1102 23.264 95.7049 22.944C95.5556 22.816 95.4916 22.624 95.5129 22.368L96.2169 18.176C96.2596 17.8987 96.3876 17.76 96.6009 17.76C96.8356 17.76 96.9529 17.9093 96.9529 18.208L97.0169 19.744C97.0596 20.96 97.3476 21.856 97.8809 22.432C98.4356 22.9867 99.1076 23.264 99.8969 23.264C100.58 23.264 101.166 23.0507 101.657 22.624C102.148 22.176 102.393 21.5253 102.393 20.672C102.393 20.1813 102.318 19.7333 102.169 19.328C102.02 18.9013 101.785 18.4533 101.465 17.984C101.145 17.4933 100.708 16.9067 100.153 16.224C99.4276 15.2853 98.8836 14.4853 98.5209 13.824C98.1796 13.1413 98.0089 12.4373 98.0089 11.712C98.0089 10.368 98.4249 9.29067 99.2569 8.48001C100.11 7.66934 101.188 7.26401 102.489 7.26401C103.065 7.26401 103.62 7.34934 104.153 7.52001C104.708 7.69068 105.166 7.94667 105.529 8.28801C105.721 8.43734 105.785 8.62934 105.721 8.86401L104.825 13.152C104.761 13.4293 104.633 13.568 104.441 13.568C104.249 13.568 104.132 13.4187 104.089 13.12L103.993 11.584C103.908 10.304 103.737 9.38667 103.481 8.83201C103.246 8.27734 102.745 8.00001 101.977 8.00001C101.294 8.00001 100.74 8.23467 100.313 8.70401C99.8862 9.17334 99.6729 9.73867 99.6729 10.4C99.6729 11.104 99.8649 11.7547 100.249 12.352C100.633 12.928 101.156 13.664 101.817 14.56C102.692 15.712 103.278 16.6293 103.577 17.312C103.897 17.9947 104.057 18.688 104.057 19.392C104.057 20.288 103.854 21.088 103.449 21.792C103.065 22.496 102.542 23.0507 101.881 23.456C101.22 23.8613 100.494 24.064 99.7049 24.064Z" fill="#2841DF"/>
<path d="M88.9959 24.064C87.8653 24.064 86.9586 23.6267 86.2759 22.752C85.5933 21.856 85.252 20.5973 85.252 18.976C85.252 17.568 85.4973 16.1707 85.988 14.784C86.5 13.3973 87.1613 12.1387 87.972 11.008C88.7826 9.87734 89.668 8.97067 90.628 8.28801C91.6093 7.60534 92.5586 7.26401 93.476 7.26401C94.4786 7.26401 95.1933 7.50934 95.6199 8.00001C96.0679 8.46934 96.292 9.10934 96.292 9.92001C96.292 10.88 95.9506 11.84 95.268 12.8C94.6066 13.7387 93.6679 14.5813 92.452 15.328C91.2573 16.0747 89.8493 16.6293 88.228 16.992C87.7586 17.0987 87.5133 17.3653 87.492 17.792C87.4706 17.9413 87.46 18.1013 87.46 18.272C87.46 18.4213 87.46 18.5707 87.46 18.72C87.46 19.936 87.6626 20.8533 88.0679 21.472C88.4946 22.0907 89.0706 22.4 89.796 22.4C90.6066 22.4 91.3853 22.0267 92.132 21.28C92.9 20.5333 93.5399 19.4773 94.0519 18.112C94.1159 17.92 94.244 17.824 94.436 17.824C94.564 17.824 94.6386 17.8773 94.66 17.984C94.7026 18.0907 94.7026 18.2187 94.66 18.368C93.9773 20.2453 93.1453 21.664 92.1639 22.624C91.2039 23.584 90.1479 24.064 88.9959 24.064ZM87.812 15.776C87.7693 15.9253 87.7906 16.0533 87.876 16.16C87.9826 16.2453 88.1106 16.2667 88.2599 16.224C89.5826 15.8613 90.692 15.3173 91.588 14.592C92.484 13.8453 93.156 13.0133 93.604 12.096C94.0733 11.1787 94.308 10.2827 94.308 9.40801C94.308 8.51201 93.956 8.06401 93.252 8.06401C92.6333 8.06401 91.9613 8.42667 91.236 9.15201C90.5106 9.87734 89.8386 10.8267 89.2199 12C88.6013 13.1733 88.132 14.432 87.812 15.776Z" fill="#2841DF"/>
<path d="M79.5484 24.096C78.8444 24.096 78.3431 23.84 78.0444 23.328C77.7458 22.7947 77.7351 21.9307 78.0124 20.736L82.0764 3.296C82.1831 2.912 82.1831 2.64533 82.0764 2.496C81.9911 2.34667 81.7991 2.26133 81.5004 2.24L80.5404 2.144C80.2204 2.12267 80.0818 1.984 80.1244 1.728C80.1671 1.536 80.3164 1.41867 80.5724 1.376C81.3404 1.248 82.0231 1.09867 82.6204 0.927999C83.2178 0.735999 83.6978 0.490666 84.0604 0.191999C84.2311 0.0639998 84.3911 0 84.5404 0C84.7964 0 84.8924 0.16 84.8284 0.48L80.0924 20.768C79.9858 21.2373 79.9644 21.6107 80.0284 21.888C80.1138 22.144 80.3164 22.272 80.6364 22.272C81.0204 22.272 81.4364 21.9947 81.8844 21.44C82.3538 20.864 82.8764 19.7867 83.4524 18.208C83.5378 17.9307 83.6871 17.792 83.9004 17.792C84.2204 17.792 84.3058 17.984 84.1564 18.368C83.7084 19.8187 83.2071 20.9707 82.6524 21.824C82.1191 22.656 81.5858 23.2427 81.0524 23.584C80.5191 23.9253 80.0178 24.096 79.5484 24.096Z" fill="#2841DF"/>
<path d="M70.1834 24.064C69.0528 24.064 68.1461 23.6267 67.4634 22.752C66.7808 21.856 66.4395 20.5973 66.4395 18.976C66.4395 17.568 66.6848 16.1707 67.1755 14.784C67.6875 13.3973 68.3488 12.1387 69.1595 11.008C69.9701 9.87734 70.8555 8.97067 71.8155 8.28801C72.7968 7.60534 73.7461 7.26401 74.6635 7.26401C75.6661 7.26401 76.3808 7.50934 76.8074 8.00001C77.2554 8.46934 77.4795 9.10934 77.4795 9.92001C77.4795 10.88 77.1381 11.84 76.4555 12.8C75.7941 13.7387 74.8554 14.5813 73.6395 15.328C72.4448 16.0747 71.0368 16.6293 69.4155 16.992C68.9461 17.0987 68.7008 17.3653 68.6795 17.792C68.6581 17.9413 68.6475 18.1013 68.6475 18.272C68.6475 18.4213 68.6475 18.5707 68.6475 18.72C68.6475 19.936 68.8501 20.8533 69.2554 21.472C69.6821 22.0907 70.2581 22.4 70.9835 22.4C71.7941 22.4 72.5728 22.0267 73.3195 21.28C74.0875 20.5333 74.7274 19.4773 75.2394 18.112C75.3034 17.92 75.4315 17.824 75.6235 17.824C75.7515 17.824 75.8261 17.8773 75.8475 17.984C75.8901 18.0907 75.8901 18.2187 75.8475 18.368C75.1648 20.2453 74.3328 21.664 73.3514 22.624C72.3914 23.584 71.3354 24.064 70.1834 24.064ZM68.9995 15.776C68.9568 15.9253 68.9781 16.0533 69.0635 16.16C69.1701 16.2453 69.2981 16.2667 69.4474 16.224C70.7701 15.8613 71.8795 15.3173 72.7755 14.592C73.6715 13.8453 74.3435 13.0133 74.7915 12.096C75.2608 11.1787 75.4955 10.2827 75.4955 9.40801C75.4955 8.51201 75.1435 8.06401 74.4395 8.06401C73.8208 8.06401 73.1488 8.42667 72.4235 9.15201C71.6981 9.87734 71.0261 10.8267 70.4074 12C69.7888 13.1733 69.3195 14.432 68.9995 15.776Z" fill="#2841DF"/>
<path d="M60.1112 24.064C59.4072 24.064 58.6605 23.9573 57.8712 23.744C57.1032 23.5307 56.5165 23.264 56.1112 22.944C55.9618 22.816 55.8978 22.624 55.9192 22.368L56.6232 18.176C56.6658 17.8987 56.7938 17.76 57.0072 17.76C57.2418 17.76 57.3592 17.9093 57.3592 18.208L57.4232 19.744C57.4658 20.96 57.7538 21.856 58.2872 22.432C58.8418 22.9867 59.5138 23.264 60.3032 23.264C60.9858 23.264 61.5725 23.0507 62.0632 22.624C62.5538 22.176 62.7992 21.5253 62.7992 20.672C62.7992 20.1813 62.7245 19.7333 62.5752 19.328C62.4258 18.9013 62.1912 18.4533 61.8712 17.984C61.5512 17.4933 61.1138 16.9067 60.5592 16.224C59.8338 15.2853 59.2898 14.4853 58.9272 13.824C58.5858 13.1413 58.4152 12.4373 58.4152 11.712C58.4152 10.368 58.8312 9.29067 59.6632 8.48001C60.5165 7.66934 61.5938 7.26401 62.8952 7.26401C63.4712 7.26401 64.0258 7.34934 64.5592 7.52001C65.1138 7.69068 65.5725 7.94667 65.9352 8.28801C66.1272 8.43734 66.1912 8.62934 66.1272 8.86401L65.2312 13.152C65.1672 13.4293 65.0392 13.568 64.8472 13.568C64.6552 13.568 64.5378 13.4187 64.4952 13.12L64.3992 11.584C64.3138 10.304 64.1432 9.38667 63.8872 8.83201C63.6525 8.27734 63.1512 8.00001 62.3832 8.00001C61.7005 8.00001 61.1458 8.23467 60.7192 8.70401C60.2925 9.17334 60.0792 9.73867 60.0792 10.4C60.0792 11.104 60.2712 11.7547 60.6552 12.352C61.0392 12.928 61.5618 13.664 62.2232 14.56C63.0978 15.712 63.6845 16.6293 63.9832 17.312C64.3032 17.9947 64.4632 18.688 64.4632 19.392C64.4632 20.288 64.2605 21.088 63.8552 21.792C63.4712 22.496 62.9485 23.0507 62.2872 23.456C61.6258 23.8613 60.9005 24.064 60.1112 24.064Z" fill="#2841DF"/>
<path d="M43.8291 24.064C43.0398 24.064 42.4958 23.712 42.1971 23.008C41.9198 22.2827 41.9411 21.3333 42.2611 20.16L44.7891 10.88C44.9598 10.2613 45.0025 9.78134 44.9171 9.44001C44.8318 9.09867 44.6398 8.92801 44.3411 8.92801C43.8505 8.92801 43.3491 9.30134 42.8371 10.048C42.3465 10.7947 41.9198 11.8293 41.5571 13.152C41.4931 13.3867 41.3545 13.504 41.1411 13.504C40.8425 13.504 40.7465 13.2907 40.8531 12.864C41.3438 11.072 41.9838 9.69601 42.7731 8.73601C43.5838 7.75467 44.4691 7.26401 45.4291 7.26401C46.1971 7.26401 46.7091 7.61601 46.9651 8.32001C47.2211 9.02401 47.1785 9.98401 46.8371 11.2L44.2771 20.48C43.8718 21.952 44.0105 22.688 44.6931 22.688C45.1198 22.688 45.6105 22.4 46.1651 21.824C46.7198 21.248 47.2958 20.4587 47.8931 19.456C48.5118 18.4533 49.1198 17.312 49.7171 16.032C50.3145 14.752 50.8585 13.408 51.3491 12C51.8398 10.592 52.2451 9.19467 52.5651 7.80801C52.6291 7.57334 52.7785 7.45601 53.0131 7.45601H54.2931C54.5918 7.45601 54.7091 7.59467 54.6451 7.87201L51.6371 20.736C51.4025 21.7387 51.5838 22.24 52.1811 22.24C53.0771 22.24 54.0158 20.8853 54.9971 18.176C55.0825 17.8987 55.2318 17.76 55.4451 17.76C55.5731 17.76 55.6585 17.8133 55.7011 17.92C55.7651 18.0267 55.7651 18.1653 55.7011 18.336C55.1251 20.1493 54.4425 21.5573 53.6531 22.56C52.8638 23.5627 52.0318 24.064 51.1571 24.064C49.6211 24.064 49.1091 22.944 49.6211 20.704L50.4531 17.152C50.4958 17.0027 50.4638 16.9173 50.3571 16.896C50.2718 16.8747 50.1971 16.928 50.1331 17.056C48.8958 19.616 47.7545 21.4293 46.7091 22.496C45.6638 23.5413 44.7038 24.064 43.8291 24.064Z" fill="#2841DF"/>
<path d="M27.7146 24.064C26.584 24.064 25.6773 23.6267 24.9946 22.752C24.312 21.856 23.9706 20.5973 23.9706 18.976C23.9706 17.568 24.216 16.1707 24.7066 14.784C25.2186 13.3973 25.88 12.1387 26.6906 11.008C27.5013 9.87734 28.3866 8.97067 29.3466 8.28801C30.328 7.60534 31.2773 7.26401 32.1946 7.26401C33.1973 7.26401 33.912 7.50934 34.3386 8.00001C34.7866 8.46934 35.0106 9.10934 35.0106 9.92001C35.0106 10.88 34.6693 11.84 33.9866 12.8C33.3253 13.7387 32.3866 14.5813 31.1706 15.328C29.976 16.0747 28.568 16.6293 26.9466 16.992C26.4773 17.0987 26.232 17.3653 26.2106 17.792C26.1893 17.9413 26.1786 18.1013 26.1786 18.272C26.1786 18.4213 26.1786 18.5707 26.1786 18.72C26.1786 19.936 26.3813 20.8533 26.7866 21.472C27.2133 22.0907 27.7893 22.4 28.5146 22.4C29.3253 22.4 30.104 22.0267 30.8506 21.28C31.6186 20.5333 32.2586 19.4773 32.7706 18.112C32.8346 17.92 32.9626 17.824 33.1546 17.824C33.2826 17.824 33.3573 17.8773 33.3786 17.984C33.4213 18.0907 33.4213 18.2187 33.3786 18.368C32.696 20.2453 31.864 21.664 30.8826 22.624C29.9226 23.584 28.8666 24.064 27.7146 24.064ZM26.5306 15.776C26.488 15.9253 26.5093 16.0533 26.5946 16.16C26.7013 16.2453 26.8293 16.2667 26.9786 16.224C28.3013 15.8613 29.4106 15.3173 30.3066 14.592C31.2026 13.8453 31.8746 13.0133 32.3226 12.096C32.792 11.1787 33.0266 10.2827 33.0266 9.40801C33.0266 8.51201 32.6746 8.06401 31.9706 8.06401C31.352 8.06401 30.68 8.42667 29.9546 9.15201C29.2293 9.87734 28.5573 10.8267 27.9386 12C27.32 13.1733 26.8506 14.432 26.5306 15.776Z" fill="#2841DF"/>
<path d="M18.6719 24.064C17.9039 24.064 17.3279 23.744 16.9439 23.104C16.5599 22.464 16.5386 21.472 16.8799 20.128L19.3439 10.848C19.5786 10.016 19.6106 9.44 19.4399 9.12C19.2906 8.8 19.0666 8.64 18.7679 8.64C18.2986 8.64 17.7652 8.93867 17.1679 9.536C16.5919 10.112 15.9839 10.912 15.3439 11.936C14.7252 12.9387 14.1172 14.08 13.5199 15.36C12.9439 16.6187 12.4106 17.952 11.9199 19.36C11.4292 20.7467 11.0346 22.1013 10.7359 23.424C10.6719 23.6587 10.5226 23.776 10.2879 23.776H8.94389C8.64523 23.776 8.52789 23.6373 8.59189 23.36L13.2639 3.296C13.3706 2.912 13.3706 2.64533 13.2639 2.496C13.1786 2.34667 12.9866 2.26133 12.6879 2.24L11.7279 2.144C11.4079 2.12267 11.2692 1.984 11.3119 1.728C11.3546 1.536 11.5039 1.41867 11.7599 1.376C12.5279 1.248 13.2106 1.09867 13.8079 0.927999C14.4052 0.735999 14.8852 0.490666 15.2479 0.191999C15.4186 0.0639998 15.5786 0 15.7279 0C15.9839 0 16.0799 0.16 16.0159 0.48L12.8799 14.08C12.8586 14.2293 12.8906 14.3147 12.9759 14.336C13.0612 14.3573 13.1359 14.304 13.1999 14.176C14.0532 12.4267 14.8639 11.0507 15.6319 10.048C16.3999 9.04533 17.1146 8.33067 17.7759 7.904C18.4586 7.47733 19.0772 7.264 19.6319 7.264C20.4212 7.264 20.9972 7.584 21.3599 8.224C21.7226 8.864 21.7226 9.84533 21.3599 11.168L18.9279 20.448C18.7786 21.0453 18.7679 21.4933 18.8959 21.792C19.0239 22.0907 19.2586 22.24 19.5999 22.24C20.0266 22.24 20.4426 21.9627 20.8479 21.408C21.2532 20.832 21.6906 19.7547 22.1599 18.176C22.2239 17.9413 22.3626 17.824 22.5759 17.824C22.7466 17.824 22.8426 17.888 22.8639 18.016C22.9066 18.144 22.9066 18.2933 22.8639 18.464C22.4586 19.9147 22.0212 21.056 21.5519 21.888C21.0826 22.6987 20.6026 23.264 20.1119 23.584C19.6426 23.904 19.1626 24.064 18.6719 24.064Z" fill="#2841DF"/>
<path d="M2.91314 24.064C2.18781 24.064 1.62247 23.776 1.21714 23.2C0.811807 22.624 0.747807 21.696 1.02514 20.416L3.68114 8.832C3.74514 8.512 3.61714 8.352 3.29714 8.352H2.08114C1.78247 8.352 1.63314 8.21333 1.63314 7.936C1.63314 7.78666 1.68647 7.66933 1.79314 7.584C1.89981 7.49866 2.02781 7.456 2.17714 7.456H3.32914C3.81981 7.456 4.10781 7.232 4.19314 6.784L4.96114 3.36C5.02514 3.12533 5.17447 3.008 5.40914 3.008H6.72114C7.01981 3.008 7.13714 3.14666 7.07314 3.424L6.27314 6.976C6.20914 7.296 6.33714 7.456 6.65714 7.456H8.48114C8.84381 7.456 9.02514 7.59466 9.02514 7.872C9.02514 8.192 8.80114 8.352 8.35314 8.352H6.62514C6.15581 8.352 5.86781 8.576 5.76114 9.024L3.07314 20.736C2.96647 21.2053 2.97714 21.5787 3.10514 21.856C3.25447 22.112 3.49981 22.24 3.84114 22.24C4.33181 22.24 4.77981 21.9627 5.18514 21.408C5.61181 20.8533 6.05981 19.7973 6.52914 18.24C6.61447 17.9627 6.75314 17.824 6.94514 17.824C7.09447 17.824 7.19047 17.888 7.23314 18.016C7.27581 18.144 7.24381 18.3787 7.13714 18.72C6.73181 20.1707 6.28381 21.28 5.79314 22.048C5.32381 22.816 4.84381 23.3493 4.35314 23.648C3.86247 23.9253 3.38247 24.064 2.91314 24.064Z" fill="#2841DF"/>
<path d="M256.578 76.4351C252.927 76.4351 249.775 75.7154 247.124 74.276C244.487 72.8214 242.457 70.7533 241.033 68.0714C239.624 65.3745 238.919 62.1699 238.919 58.4578C238.919 54.8517 239.631 51.7002 241.055 49.0033C242.48 46.2911 244.487 44.1851 247.078 42.6851C249.669 41.1699 252.722 40.4124 256.237 40.4124C258.722 40.4124 260.995 40.7987 263.055 41.5714C265.116 42.3442 266.896 43.4881 268.396 45.0033C269.896 46.5184 271.063 48.3896 271.896 50.6169C272.73 52.829 273.146 55.3669 273.146 58.2305V61.0033H242.805V54.5487H262.805C262.79 53.3669 262.51 52.3139 261.965 51.3896C261.419 50.4654 260.669 49.7457 259.715 49.2305C258.775 48.7002 257.692 48.4351 256.465 48.4351C255.222 48.4351 254.108 48.7154 253.124 49.276C252.139 49.8214 251.358 50.5714 250.783 51.526C250.207 52.4654 249.904 53.5336 249.874 54.7305V61.2987C249.874 62.723 250.154 63.973 250.715 65.0487C251.275 66.1093 252.071 66.9351 253.101 67.526C254.131 68.1169 255.358 68.4124 256.783 68.4124C257.768 68.4124 258.661 68.276 259.465 68.0033C260.268 67.7305 260.957 67.329 261.533 66.7987C262.108 66.2684 262.54 65.6169 262.828 64.8442L273.033 65.1396C272.608 67.4275 271.677 69.4199 270.237 71.1169C268.813 72.7987 266.942 74.1093 264.624 75.0487C262.305 75.973 259.624 76.4351 256.578 76.4351Z" fill="#2841DF"/>
<path d="M219.648 76.4351C215.966 76.4351 212.807 75.6775 210.171 74.1624C207.549 72.6472 205.534 70.5411 204.125 67.8442C202.716 65.132 202.012 61.9957 202.012 58.4351C202.012 54.8593 202.716 51.723 204.125 49.026C205.549 46.3139 207.572 44.2002 210.193 42.6851C212.83 41.1699 215.974 40.4124 219.625 40.4124C222.853 40.4124 225.663 40.9957 228.057 42.1624C230.466 43.329 232.345 44.9805 233.693 47.1169C235.057 49.2381 235.777 51.7305 235.852 54.5942H225.466C225.254 52.8063 224.648 51.4048 223.648 50.3896C222.663 49.3745 221.375 48.8669 219.784 48.8669C218.496 48.8669 217.368 49.2305 216.398 49.9578C215.428 50.6699 214.671 51.7305 214.125 53.1396C213.595 54.5336 213.33 56.2608 213.33 58.3214C213.33 60.382 213.595 62.1245 214.125 63.5487C214.671 64.9578 215.428 66.026 216.398 66.7533C217.368 67.4654 218.496 67.8214 219.784 67.8214C220.815 67.8214 221.724 67.6017 222.512 67.1624C223.315 66.723 223.974 66.079 224.489 65.2305C225.004 64.3669 225.33 63.3214 225.466 62.0942H235.852C235.746 64.973 235.027 67.4881 233.693 69.6396C232.375 71.7911 230.519 73.4654 228.125 74.6624C225.746 75.8442 222.921 76.4351 219.648 76.4351Z" fill="#2841DF"/>
<path d="M176.973 76.3669C174.746 76.3669 172.769 75.9957 171.042 75.2533C169.329 74.4957 167.973 73.3593 166.973 71.8442C165.989 70.3139 165.496 68.3972 165.496 66.0942C165.496 64.1548 165.837 62.5184 166.519 61.1851C167.201 59.8517 168.14 58.7684 169.337 57.9351C170.534 57.1017 171.913 56.473 173.473 56.0487C175.034 55.6093 176.701 55.3139 178.473 55.1624C180.458 54.9805 182.057 54.7911 183.269 54.5942C184.481 54.3821 185.36 54.0866 185.905 53.7078C186.466 53.3139 186.746 52.7608 186.746 52.0487V51.9351C186.746 50.7684 186.345 49.8669 185.542 49.2305C184.739 48.5942 183.655 48.276 182.292 48.276C180.822 48.276 179.64 48.5942 178.746 49.2305C177.852 49.8669 177.284 50.7457 177.042 51.8669L166.792 51.5033C167.095 49.382 167.875 47.4881 169.133 45.8214C170.405 44.1396 172.148 42.8214 174.36 41.8669C176.587 40.8972 179.261 40.4124 182.383 40.4124C184.61 40.4124 186.663 40.6775 188.542 41.2078C190.42 41.723 192.057 42.4805 193.451 43.4805C194.845 44.4654 195.92 45.6775 196.678 47.1169C197.451 48.5563 197.837 50.2002 197.837 52.0487V75.776H187.383V70.9124H187.11C186.489 72.0942 185.693 73.0942 184.723 73.9124C183.769 74.7305 182.64 75.3442 181.337 75.7533C180.049 76.1624 178.595 76.3669 176.973 76.3669ZM180.405 69.0942C181.602 69.0942 182.678 68.8517 183.633 68.3669C184.602 67.882 185.375 67.2154 185.951 66.3669C186.526 65.5033 186.814 64.5033 186.814 63.3669V60.0487C186.496 60.2154 186.11 60.3669 185.655 60.5033C185.216 60.6396 184.731 60.7684 184.201 60.8896C183.67 61.0108 183.125 61.1169 182.564 61.2078C182.004 61.2987 181.466 61.382 180.951 61.4578C179.905 61.6245 179.011 61.882 178.269 62.2305C177.542 62.579 176.981 63.0336 176.587 63.5942C176.208 64.1396 176.019 64.7911 176.019 65.5487C176.019 66.7002 176.428 67.579 177.246 68.1851C178.079 68.7911 179.133 69.0942 180.405 69.0942Z" fill="#2841DF"/>
<path d="M164.441 40.8669V49.0487H141.986V40.8669H164.441ZM146.668 75.776V39.0942C146.668 36.3972 147.176 34.1624 148.191 32.3896C149.206 30.6018 150.615 29.2684 152.418 28.3896C154.221 27.4957 156.305 27.0487 158.668 27.0487C160.214 27.0487 161.668 27.1699 163.032 27.4124C164.411 27.6396 165.433 27.8442 166.1 28.026L164.327 36.1624C163.918 36.026 163.418 35.9124 162.827 35.8215C162.252 35.7306 161.706 35.6851 161.191 35.6851C159.888 35.6851 158.994 35.973 158.509 36.5487C158.024 37.1245 157.782 37.9124 157.782 38.9124V75.776H146.668Z" fill="#2841DF"/>
<path d="M117.318 75.776V40.8669H128.113V47.2306H128.477C129.113 44.9275 130.151 43.2154 131.59 42.0942C133.03 40.9578 134.704 40.3896 136.613 40.3896C137.128 40.3896 137.658 40.4275 138.204 40.5033C138.749 40.5639 139.257 40.6624 139.727 40.7987V50.4578C139.196 50.276 138.499 50.1321 137.636 50.026C136.787 49.92 136.03 49.8669 135.363 49.8669C134.045 49.8669 132.855 50.1624 131.795 50.7533C130.749 51.329 129.924 52.1396 129.318 53.1851C128.727 54.2154 128.431 55.4275 128.431 56.8215V75.776H117.318Z" fill="#2841DF"/>
<path d="M96.3532 76.4351C92.7017 76.4351 89.5502 75.7154 86.8986 74.276C84.2623 72.8214 82.232 70.7533 80.8077 68.0714C79.3986 65.3745 78.6941 62.1699 78.6941 58.4578C78.6941 54.8517 79.4062 51.7002 80.8305 49.0033C82.2547 46.2911 84.2623 44.1851 86.8532 42.6851C89.4441 41.1699 92.4971 40.4124 96.0123 40.4124C98.4971 40.4124 100.77 40.7987 102.83 41.5714C104.891 42.3442 106.671 43.4881 108.171 45.0033C109.671 46.5184 110.838 48.3896 111.671 50.6169C112.505 52.829 112.921 55.3669 112.921 58.2305V61.0033H82.5805V54.5487H102.58C102.565 53.3669 102.285 52.3139 101.74 51.3896C101.194 50.4654 100.444 49.7457 99.4895 49.2305C98.5502 48.7002 97.4668 48.4351 96.2395 48.4351C94.9971 48.4351 93.8835 48.7154 92.8986 49.276C91.9138 49.8214 91.1335 50.5714 90.5577 51.526C89.982 52.4654 89.6789 53.5336 89.6486 54.7305V61.2987C89.6486 62.723 89.9289 63.973 90.4895 65.0487C91.0502 66.1093 91.8456 66.9351 92.8759 67.526C93.9062 68.1169 95.1335 68.4124 96.5577 68.4124C97.5426 68.4124 98.4365 68.276 99.2395 68.0033C100.043 67.7305 100.732 67.329 101.308 66.7987C101.883 66.2684 102.315 65.6169 102.603 64.8442L112.808 65.1396C112.383 67.4275 111.452 69.4199 110.012 71.1169C108.588 72.7987 106.717 74.1093 104.399 75.0487C102.08 75.973 99.3986 76.4351 96.3532 76.4351Z" fill="#2841DF"/>
<path d="M76.0196 40.8669V49.0487H53.9968V40.8669H76.0196ZM58.6105 32.5033H69.7241V64.7987C69.7241 65.4805 69.8302 66.0336 70.0423 66.4578C70.2696 66.8669 70.5953 67.1624 71.0196 67.3442C71.4438 67.5108 71.9514 67.5942 72.5423 67.5942C72.9665 67.5942 73.4135 67.5563 73.8832 67.4805C74.368 67.3896 74.7317 67.3139 74.9741 67.2533L76.6559 75.276C76.1256 75.4275 75.3756 75.6169 74.4059 75.8442C73.4514 76.0714 72.3074 76.2154 70.9741 76.276C68.368 76.3972 66.1332 76.0942 64.2696 75.3669C62.4211 74.6245 61.0044 73.473 60.0196 71.9124C59.0499 70.3518 58.5802 68.3896 58.6105 66.026V32.5033Z" fill="#2841DF"/>
<path d="M28.1462 55.8669V75.776H17.0325V40.8669H27.6007V47.276H27.9871C28.7598 45.1396 30.078 43.4654 31.9416 42.2533C33.8053 41.026 36.025 40.4124 38.6007 40.4124C41.0553 40.4124 43.184 40.9654 44.9871 42.0714C46.8053 43.1624 48.2143 44.6927 49.2143 46.6624C50.2295 48.6169 50.7295 50.9048 50.7143 53.526V75.776H39.6007V55.7078C39.6159 53.7684 39.1234 52.2533 38.1234 51.1624C37.1386 50.0714 35.7674 49.526 34.0098 49.526C32.8431 49.526 31.8128 49.7836 30.9189 50.2987C30.0401 50.7987 29.3583 51.5184 28.8734 52.4578C28.4037 53.3972 28.1613 54.5336 28.1462 55.8669Z" fill="#2841DF"/>
<path d="M11.25 29.2305V75.776H0V29.2305H11.25Z" fill="#2841DF"/>
</svg>
